<svg xmlns="http://www.w3.org/2000/svg" viewBox="0 0 24 24" fill="currentColor"><path fill-rule="evenodd" d="M12 2.026c-5.509 0-9.974 4.465-9.974 9.974 0 4.406 2.857 8.145 6.821 9.465.499.09.679-.217.679-.481 0-.237-.008-.865-.013-1.702-2.782.602-3.369-1.346-3.369-1.346-.454-1.156-1.11-1.464-1.11-1.464-.908-.618.069-.606.069-.606 1.003.07 1.531 1.027 1.531 1.027.892 1.529 2.341 1.089 2.91.833.091-.647.351-1.088.636-1.338-2.22-.253-4.555-1.113-4.555-4.93 0-1.091.39-1.984 1.029-2.682-.103-.253-.446-1.272.098-2.65 0 0 .84-.268 2.75 1.025A9.564 9.564 0 0112 6.844c.85.004 1.705.115 2.504.337 1.909-1.293 2.747-1.025 2.747-1.025.546 1.379.202 2.398.099 2.65.64.698 1.028 1.591 1.028 2.682 0 3.827-2.338 4.673-4.566 4.92.359.307.678.915.678 1.846 0 1.334-.012 2.41-.012 2.727 0 .268.18.577.685.479C21.149 20.121 24 16.381 24 11.999 24 6.49 19.535 2.026 14.026 2.026H12z" clip-rule="evenodd"/></svg>